<svg width="357" height="150" viewBox="0 0 357 150" fill="none" xmlns="http://www.w3.org/2000/svg">
    <rect width="357" height="150" fill="#231F20"/>
    <path d="M53.424 72.112C53.8416 71.7376 54.2736 71.3992 54.72 71.0968C55.1808 70.78 55.6632 70.5136 56.1672 70.2976C56.6856 70.0672 57.2328 69.8944 57.8088 69.7792C58.3992 69.6496 59.0328 69.5848 59.7096 69.5848C60.9192 69.5848 61.992 69.7936 62.928 70.2112C63.864 70.6288 64.6488 71.212 65.2824 71.9608C65.9304 72.7096 66.4128 73.6024 66.7296 74.6392C67.0608 75.676 67.2264 76.8136 67.2264 78.052V92.2H61.2864V78.052C61.2864 76.8136 60.9984 75.856 60.4224 75.1792C59.8464 74.488 58.9968 74.1424 57.8736 74.1424C57.0384 74.1424 56.2536 74.3224 55.5192 74.6824C54.7848 75.0424 54.0864 75.5464 53.424 76.1944V92.2H47.4624V59.9944H53.424V72.112ZM87.8277 78.4408C87.8277 77.8216 87.7413 77.2312 87.5685 76.6696C87.4101 76.108 87.1509 75.6112 86.7909 75.1792C86.4309 74.7472 85.9773 74.4088 85.4301 74.164C84.8829 73.9048 84.2277 73.7752 83.4645 73.7752C82.0389 73.7752 80.9229 74.1784 80.1165 74.9848C79.3101 75.7912 78.7845 76.9432 78.5397 78.4408H87.8277ZM78.4533 81.9832C78.6405 84.0712 79.2309 85.5976 80.2245 86.5624C81.2325 87.5272 82.5429 88.0096 84.1557 88.0096C84.9765 88.0096 85.6821 87.916 86.2725 87.7288C86.8773 87.5272 87.4029 87.3112 87.8493 87.0808C88.3101 86.836 88.7205 86.62 89.0805 86.4328C89.4549 86.2312 89.8221 86.1304 90.1821 86.1304C90.6429 86.1304 91.0029 86.3032 91.2621 86.6488L92.9901 88.8088C92.3565 89.5432 91.6581 90.1552 90.8949 90.6448C90.1317 91.12 89.3397 91.5016 88.5189 91.7896C87.6981 92.0632 86.8701 92.2504 86.0349 92.3512C85.1997 92.4664 84.3933 92.524 83.6157 92.524C82.0605 92.524 80.6061 92.272 79.2525 91.768C77.9133 91.2496 76.7397 90.4936 75.7317 89.5C74.7381 88.492 73.9533 87.2464 73.3773 85.7632C72.8013 84.28 72.5133 82.5592 72.5133 80.6008C72.5133 79.0888 72.7581 77.6632 73.2477 76.324C73.7517 74.9848 74.4717 73.8184 75.4077 72.8248C76.3437 71.8312 77.4813 71.0464 78.8205 70.4704C80.1597 69.88 81.6717 69.5848 83.3565 69.5848C84.7821 69.5848 86.0925 69.8152 87.2877 70.276C88.4973 70.7224 89.5341 71.3776 90.3981 72.2416C91.2765 73.1056 91.9533 74.1712 92.4285 75.4384C92.9181 76.6912 93.1629 78.124 93.1629 79.7368C93.1629 80.1832 93.1413 80.5504 93.0981 80.8384C93.0549 81.1264 92.9829 81.3568 92.8821 81.5296C92.7813 81.7024 92.6445 81.8248 92.4717 81.8968C92.2989 81.9544 92.0757 81.9832 91.8021 81.9832H78.4533ZM118.794 92.2H113.07C112.638 92.2 112.286 92.092 112.012 91.876C111.753 91.66 111.544 91.408 111.386 91.12L107.001 83.7976C106.871 84.2872 106.684 84.7192 106.439 85.0936L102.681 91.12C102.508 91.3936 102.292 91.6456 102.033 91.876C101.788 92.092 101.471 92.2 101.082 92.2H95.7688L103.329 80.7088L96.0712 69.9304H101.795C102.227 69.9304 102.544 69.988 102.746 70.1032C102.947 70.2184 103.127 70.4056 103.286 70.6648L107.649 77.728C107.721 77.4832 107.814 77.2384 107.93 76.9936C108.045 76.7344 108.182 76.4824 108.34 76.2376L111.688 70.7728C112.034 70.2112 112.48 69.9304 113.027 69.9304H118.492L111.234 80.4496L118.794 92.2ZM128.978 59.9944V92.2H123.016V59.9944H128.978ZM141.804 69.9304V92.2H135.843V69.9304H141.804ZM142.517 63.6016C142.517 64.1056 142.416 64.5736 142.215 65.0056C142.013 65.4376 141.739 65.8192 141.394 66.1504C141.063 66.4816 140.667 66.7408 140.206 66.928C139.759 67.1152 139.277 67.2088 138.759 67.2088C138.269 67.2088 137.801 67.1152 137.355 66.928C136.923 66.7408 136.541 66.4816 136.21 66.1504C135.879 65.8192 135.612 65.4376 135.411 65.0056C135.223 64.5736 135.13 64.1056 135.13 63.6016C135.13 63.0976 135.223 62.6296 135.411 62.1976C135.612 61.7512 135.879 61.3624 136.21 61.0312C136.541 60.7 136.923 60.4408 137.355 60.2536C137.801 60.0664 138.269 59.9728 138.759 59.9728C139.277 59.9728 139.759 60.0664 140.206 60.2536C140.667 60.4408 141.063 60.7 141.394 61.0312C141.739 61.3624 142.013 61.7512 142.215 62.1976C142.416 62.6296 142.517 63.0976 142.517 63.6016ZM154.581 86.3248C155.143 86.9728 155.748 87.4264 156.396 87.6856C157.058 87.9448 157.742 88.0744 158.448 88.0744C159.182 88.0744 159.844 87.9448 160.435 87.6856C161.04 87.412 161.558 86.9872 161.99 86.4112C162.422 85.8208 162.753 85.0576 162.984 84.1216C163.214 83.1856 163.329 82.0552 163.329 80.7304C163.329 79.5496 163.236 78.5488 163.048 77.728C162.861 76.8928 162.58 76.2088 162.206 75.676C161.846 75.1432 161.4 74.7544 160.867 74.5096C160.334 74.2648 159.715 74.1424 159.009 74.1424C158.073 74.1424 157.26 74.3512 156.568 74.7688C155.892 75.172 155.229 75.7696 154.581 76.5616V86.3248ZM154.581 72.5008C155.46 71.6224 156.432 70.9168 157.497 70.384C158.563 69.8512 159.758 69.5848 161.083 69.5848C162.364 69.5848 163.516 69.844 164.539 70.3624C165.576 70.8664 166.454 71.5936 167.174 72.544C167.908 73.4944 168.47 74.6464 168.859 76C169.262 77.3392 169.464 78.844 169.464 80.5144C169.464 82.3144 169.233 83.956 168.772 85.4392C168.326 86.908 167.685 88.168 166.85 89.2192C166.015 90.2704 165.014 91.084 163.848 91.66C162.696 92.236 161.407 92.524 159.981 92.524C159.29 92.524 158.671 92.452 158.124 92.308C157.576 92.1784 157.072 91.9912 156.612 91.7464C156.151 91.5016 155.726 91.2136 155.337 90.8824C154.948 90.5368 154.581 90.1552 154.236 89.7376L153.998 91.0768C153.897 91.4944 153.732 91.7896 153.501 91.9624C153.271 92.1208 152.961 92.2 152.572 92.2H148.62V59.9944H154.581V72.5008Z" fill="white"/>
    <path d="M48.4668 112.933C48.8196 112.213 49.2444 111.648 49.7412 111.238C50.238 110.827 50.8356 110.622 51.534 110.622C51.7716 110.622 51.9948 110.651 52.2036 110.708C52.4196 110.759 52.6068 110.838 52.7652 110.946L52.6248 112.534C52.5744 112.728 52.4556 112.825 52.2684 112.825C52.1676 112.825 52.0164 112.807 51.8148 112.771C51.6132 112.728 51.3972 112.706 51.1668 112.706C50.8284 112.706 50.5296 112.757 50.2704 112.858C50.0112 112.951 49.7772 113.095 49.5684 113.29C49.3668 113.477 49.1868 113.711 49.0284 113.992C48.87 114.265 48.7224 114.578 48.5856 114.931V121.8H46.4796V110.827H47.6892C47.9196 110.827 48.0744 110.87 48.1536 110.957C48.24 111.036 48.3012 111.18 48.3372 111.389L48.4668 112.933ZM62.1214 115.093C62.1214 114.676 62.0602 114.29 61.9378 113.938C61.8226 113.585 61.6498 113.279 61.4194 113.02C61.189 112.76 60.9082 112.559 60.577 112.415C60.2458 112.271 59.8642 112.199 59.4322 112.199C58.5466 112.199 57.8482 112.454 57.337 112.966C56.833 113.477 56.5126 114.186 56.3758 115.093H62.1214ZM63.8602 120.234C63.601 120.536 63.3022 120.799 62.9638 121.022C62.6254 121.238 62.2654 121.415 61.8838 121.552C61.5022 121.688 61.1062 121.789 60.6958 121.854C60.2926 121.919 59.893 121.951 59.497 121.951C58.741 121.951 58.039 121.825 57.391 121.573C56.7502 121.314 56.1922 120.94 55.717 120.45C55.249 119.953 54.8818 119.341 54.6154 118.614C54.3562 117.88 54.2266 117.037 54.2266 116.087C54.2266 115.324 54.3454 114.614 54.583 113.959C54.8206 113.297 55.159 112.721 55.5982 112.231C56.0446 111.742 56.5882 111.356 57.229 111.076C57.8698 110.795 58.5898 110.654 59.389 110.654C60.0586 110.654 60.6742 110.766 61.2358 110.989C61.8046 111.205 62.2942 111.522 62.7046 111.94C63.115 112.357 63.4354 112.872 63.6658 113.484C63.9034 114.096 64.0222 114.794 64.0222 115.579C64.0222 115.903 63.9862 116.123 63.9142 116.238C63.8422 116.346 63.709 116.4 63.5146 116.4H56.3218C56.3434 117.055 56.437 117.628 56.6026 118.117C56.7682 118.6 56.995 119.003 57.283 119.327C57.5782 119.651 57.9274 119.892 58.3306 120.05C58.7338 120.209 59.1838 120.288 59.6806 120.288C60.1486 120.288 60.5518 120.234 60.8902 120.126C61.2358 120.018 61.531 119.903 61.7758 119.78C62.0278 119.651 62.2366 119.532 62.4022 119.424C62.575 119.316 62.7262 119.262 62.8558 119.262C63.0286 119.262 63.1618 119.327 63.2554 119.456L63.8602 120.234ZM73.0466 116.929C72.1898 116.958 71.4626 117.026 70.865 117.134C70.2674 117.235 69.7814 117.372 69.407 117.545C69.0326 117.718 68.7626 117.923 68.597 118.16C68.4314 118.391 68.3486 118.65 68.3486 118.938C68.3486 119.212 68.3918 119.449 68.4782 119.651C68.5718 119.845 68.6942 120.007 68.8454 120.137C69.0038 120.259 69.1874 120.349 69.3962 120.407C69.605 120.464 69.8318 120.493 70.0766 120.493C70.4006 120.493 70.6958 120.461 70.9622 120.396C71.2358 120.331 71.4914 120.241 71.729 120.126C71.9666 120.004 72.1934 119.856 72.4094 119.683C72.6254 119.51 72.8378 119.312 73.0466 119.089V116.929ZM66.869 112.361C67.481 111.778 68.1434 111.342 68.8562 111.054C69.5762 110.766 70.3646 110.622 71.2214 110.622C71.8478 110.622 72.4022 110.726 72.8846 110.935C73.367 111.137 73.7738 111.421 74.105 111.788C74.4362 112.156 74.6846 112.595 74.8502 113.106C75.023 113.617 75.1094 114.182 75.1094 114.802V121.8H74.1698C73.961 121.8 73.8026 121.768 73.6946 121.703C73.5866 121.631 73.5002 121.501 73.4354 121.314L73.2086 120.353C72.9278 120.612 72.6506 120.842 72.377 121.044C72.1034 121.238 71.8154 121.408 71.513 121.552C71.2178 121.688 70.901 121.793 70.5626 121.865C70.2242 121.937 69.8498 121.973 69.4394 121.973C69.0074 121.973 68.6006 121.915 68.219 121.8C67.8446 121.678 67.517 121.494 67.2362 121.249C66.9554 121.004 66.7322 120.698 66.5666 120.331C66.4082 119.964 66.329 119.536 66.329 119.046C66.329 118.614 66.4442 118.2 66.6746 117.804C66.9122 117.401 67.2938 117.041 67.8194 116.724C68.3522 116.407 69.0434 116.148 69.893 115.946C70.7498 115.745 71.801 115.63 73.0466 115.601V114.802C73.0466 113.974 72.8702 113.354 72.5174 112.944C72.1646 112.534 71.6462 112.328 70.9622 112.328C70.5014 112.328 70.1126 112.386 69.7958 112.501C69.4862 112.616 69.2162 112.746 68.9858 112.89C68.7626 113.027 68.5646 113.153 68.3918 113.268C68.2262 113.383 68.0534 113.441 67.8734 113.441C67.7294 113.441 67.6034 113.401 67.4954 113.322C67.3946 113.243 67.3118 113.149 67.247 113.041L66.869 112.361ZM86.4823 112.879C86.4175 112.958 86.3527 113.023 86.2879 113.074C86.2303 113.117 86.1439 113.138 86.0287 113.138C85.9135 113.138 85.7911 113.095 85.6615 113.009C85.5391 112.915 85.3807 112.818 85.1863 112.717C84.9991 112.609 84.7687 112.512 84.4951 112.426C84.2287 112.332 83.8975 112.285 83.5015 112.285C82.9831 112.285 82.5259 112.379 82.1299 112.566C81.7339 112.753 81.4027 113.02 81.1363 113.365C80.8771 113.711 80.6791 114.132 80.5423 114.629C80.4055 115.126 80.3371 115.684 80.3371 116.303C80.3371 116.944 80.4091 117.516 80.5531 118.02C80.6971 118.517 80.9023 118.938 81.1687 119.284C81.4351 119.622 81.7591 119.881 82.1407 120.061C82.5223 120.234 82.9471 120.32 83.4151 120.32C83.8687 120.32 84.2431 120.266 84.5383 120.158C84.8335 120.043 85.0783 119.921 85.2727 119.791C85.4671 119.662 85.6291 119.543 85.7587 119.435C85.8883 119.32 86.0215 119.262 86.1583 119.262C86.3311 119.262 86.4643 119.327 86.5579 119.456L87.1627 120.234C86.9107 120.544 86.6263 120.806 86.3095 121.022C85.9999 121.238 85.6687 121.415 85.3159 121.552C84.9631 121.688 84.5923 121.789 84.2035 121.854C83.8219 121.919 83.4331 121.951 83.0371 121.951C82.3531 121.951 81.7123 121.825 81.1147 121.573C80.5243 121.321 80.0095 120.954 79.5703 120.472C79.1383 119.989 78.7963 119.399 78.5443 118.7C78.2923 117.995 78.1663 117.196 78.1663 116.303C78.1663 115.489 78.2779 114.737 78.5011 114.046C78.7315 113.354 79.0663 112.76 79.5055 112.264C79.9519 111.76 80.4991 111.367 81.1471 111.086C81.7951 110.798 82.5367 110.654 83.3719 110.654C84.1567 110.654 84.8479 110.78 85.4455 111.032C86.0431 111.284 86.5759 111.641 87.0439 112.102L86.4823 112.879ZM93.427 121.973C92.5414 121.973 91.8574 121.724 91.375 121.228C90.8998 120.731 90.6622 120.022 90.6622 119.1V112.534H89.3878C89.2654 112.534 89.161 112.498 89.0746 112.426C88.9954 112.346 88.9558 112.231 88.9558 112.08V111.227L90.7378 110.978L91.213 107.706C91.2418 107.584 91.2958 107.49 91.375 107.425C91.4614 107.353 91.5694 107.317 91.699 107.317H92.7682V111H95.8786V112.534H92.7682V118.96C92.7682 119.392 92.8726 119.716 93.0814 119.932C93.2974 120.14 93.571 120.245 93.9022 120.245C94.0966 120.245 94.2622 120.22 94.399 120.169C94.543 120.119 94.6654 120.065 94.7662 120.007C94.867 119.942 94.9534 119.885 95.0254 119.834C95.0974 119.784 95.1622 119.759 95.2198 119.759C95.2918 119.759 95.3458 119.777 95.3818 119.813C95.425 119.842 95.4682 119.892 95.5114 119.964L96.1378 120.979C95.7922 121.296 95.3818 121.541 94.9066 121.714C94.4314 121.886 93.9382 121.973 93.427 121.973ZM98.5204 114.413H103.92V116.206H98.5204V114.413ZM109.56 112.35C109.797 112.098 110.046 111.868 110.305 111.659C110.564 111.45 110.838 111.274 111.126 111.13C111.421 110.978 111.734 110.863 112.065 110.784C112.404 110.698 112.764 110.654 113.145 110.654C113.75 110.654 114.279 110.755 114.733 110.957C115.194 111.158 115.579 111.443 115.888 111.81C116.198 112.17 116.432 112.606 116.59 113.117C116.749 113.628 116.828 114.193 116.828 114.812V121.8H114.711V114.812C114.711 114.028 114.531 113.419 114.171 112.987C113.811 112.548 113.26 112.328 112.519 112.328C111.979 112.328 111.471 112.458 110.996 112.717C110.528 112.969 110.092 113.315 109.689 113.754V121.8H107.583V110.827H108.847C109.142 110.827 109.326 110.968 109.398 111.248L109.56 112.35ZM126.431 116.929C125.574 116.958 124.847 117.026 124.249 117.134C123.651 117.235 123.165 117.372 122.791 117.545C122.417 117.718 122.147 117.923 121.981 118.16C121.815 118.391 121.733 118.65 121.733 118.938C121.733 119.212 121.776 119.449 121.862 119.651C121.956 119.845 122.078 120.007 122.229 120.137C122.388 120.259 122.571 120.349 122.78 120.407C122.989 120.464 123.216 120.493 123.461 120.493C123.785 120.493 124.08 120.461 124.346 120.396C124.62 120.331 124.875 120.241 125.113 120.126C125.351 120.004 125.577 119.856 125.793 119.683C126.009 119.51 126.222 119.312 126.431 119.089V116.929ZM120.253 112.361C120.865 111.778 121.527 111.342 122.24 111.054C122.96 110.766 123.749 110.622 124.605 110.622C125.232 110.622 125.786 110.726 126.269 110.935C126.751 111.137 127.158 111.421 127.489 111.788C127.82 112.156 128.069 112.595 128.234 113.106C128.407 113.617 128.493 114.182 128.493 114.802V121.8H127.554C127.345 121.8 127.187 121.768 127.079 121.703C126.971 121.631 126.884 121.501 126.819 121.314L126.593 120.353C126.312 120.612 126.035 120.842 125.761 121.044C125.487 121.238 125.199 121.408 124.897 121.552C124.602 121.688 124.285 121.793 123.947 121.865C123.608 121.937 123.234 121.973 122.823 121.973C122.391 121.973 121.985 121.915 121.603 121.8C121.229 121.678 120.901 121.494 120.62 121.249C120.339 121.004 120.116 120.698 119.951 120.331C119.792 119.964 119.713 119.536 119.713 119.046C119.713 118.614 119.828 118.2 120.059 117.804C120.296 117.401 120.678 117.041 121.203 116.724C121.736 116.407 122.427 116.148 123.277 115.946C124.134 115.745 125.185 115.63 126.431 115.601V114.802C126.431 113.974 126.254 113.354 125.901 112.944C125.549 112.534 125.03 112.328 124.346 112.328C123.885 112.328 123.497 112.386 123.18 112.501C122.87 112.616 122.6 112.746 122.37 112.89C122.147 113.027 121.949 113.153 121.776 113.268C121.61 113.383 121.437 113.441 121.257 113.441C121.113 113.441 120.987 113.401 120.879 113.322C120.779 113.243 120.696 113.149 120.631 113.041L120.253 112.361ZM142.429 121.8H140.313V112.534H134.805V118.96C134.805 119.392 134.909 119.716 135.118 119.932C135.334 120.14 135.607 120.245 135.939 120.245C136.133 120.245 136.299 120.22 136.435 120.169C136.579 120.119 136.702 120.065 136.803 120.007C136.904 119.942 136.99 119.885 137.062 119.834C137.134 119.784 137.199 119.759 137.256 119.759C137.328 119.759 137.382 119.777 137.418 119.813C137.461 119.842 137.505 119.892 137.548 119.964L138.174 120.979C137.829 121.296 137.418 121.541 136.943 121.714C136.468 121.886 135.975 121.973 135.463 121.973C134.578 121.973 133.894 121.724 133.411 121.228C132.936 120.731 132.699 120.022 132.699 119.1V112.534H131.424C131.302 112.534 131.197 112.498 131.111 112.426C131.032 112.346 130.992 112.231 130.992 112.08V111.227L132.785 110.978L133.249 107.706C133.278 107.584 133.332 107.49 133.411 107.425C133.498 107.353 133.606 107.317 133.735 107.317H134.805V111H142.429V121.8ZM142.905 107.371C142.905 107.566 142.865 107.753 142.786 107.933C142.707 108.106 142.599 108.26 142.462 108.397C142.332 108.527 142.178 108.631 141.998 108.71C141.818 108.782 141.63 108.818 141.436 108.818C141.242 108.818 141.058 108.782 140.885 108.71C140.712 108.631 140.558 108.527 140.421 108.397C140.291 108.26 140.187 108.106 140.108 107.933C140.036 107.753 140 107.566 140 107.371C140 107.17 140.036 106.979 140.108 106.799C140.187 106.619 140.291 106.464 140.421 106.334C140.558 106.198 140.712 106.093 140.885 106.021C141.058 105.942 141.242 105.902 141.436 105.902C141.63 105.902 141.818 105.942 141.998 106.021C142.178 106.093 142.332 106.198 142.462 106.334C142.599 106.464 142.707 106.619 142.786 106.799C142.865 106.979 142.905 107.17 142.905 107.371ZM155.877 110.827L151.427 121.8H149.526L145.077 110.827H146.815C146.981 110.827 147.118 110.867 147.226 110.946C147.334 111.025 147.406 111.126 147.442 111.248L150.066 117.988C150.16 118.268 150.239 118.549 150.304 118.83C150.376 119.104 150.441 119.377 150.498 119.651C150.556 119.377 150.621 119.104 150.693 118.83C150.765 118.556 150.851 118.276 150.952 117.988L153.609 111.248C153.652 111.126 153.727 111.025 153.835 110.946C153.943 110.867 154.073 110.827 154.224 110.827H155.877ZM165.368 115.093C165.368 114.676 165.306 114.29 165.184 113.938C165.069 113.585 164.896 113.279 164.666 113.02C164.435 112.76 164.154 112.559 163.823 112.415C163.492 112.271 163.11 112.199 162.678 112.199C161.793 112.199 161.094 112.454 160.583 112.966C160.079 113.477 159.759 114.186 159.622 115.093H165.368ZM167.106 120.234C166.847 120.536 166.548 120.799 166.21 121.022C165.872 121.238 165.512 121.415 165.13 121.552C164.748 121.688 164.352 121.789 163.942 121.854C163.539 121.919 163.139 121.951 162.743 121.951C161.987 121.951 161.285 121.825 160.637 121.573C159.996 121.314 159.438 120.94 158.963 120.45C158.495 119.953 158.128 119.341 157.862 118.614C157.602 117.88 157.473 117.037 157.473 116.087C157.473 115.324 157.592 114.614 157.829 113.959C158.067 113.297 158.405 112.721 158.844 112.231C159.291 111.742 159.834 111.356 160.475 111.076C161.116 110.795 161.836 110.654 162.635 110.654C163.305 110.654 163.92 110.766 164.482 110.989C165.051 111.205 165.54 111.522 165.951 111.94C166.361 112.357 166.682 112.872 166.912 113.484C167.15 114.096 167.268 114.794 167.268 115.579C167.268 115.903 167.232 116.123 167.16 116.238C167.088 116.346 166.955 116.4 166.761 116.4H159.568C159.59 117.055 159.683 117.628 159.849 118.117C160.014 118.6 160.241 119.003 160.529 119.327C160.824 119.651 161.174 119.892 161.577 120.05C161.98 120.209 162.43 120.288 162.927 120.288C163.395 120.288 163.798 120.234 164.136 120.126C164.482 120.018 164.777 119.903 165.022 119.78C165.274 119.651 165.483 119.532 165.648 119.424C165.821 119.316 165.972 119.262 166.102 119.262C166.275 119.262 166.408 119.327 166.502 119.456L167.106 120.234Z" fill="#C9C0FF"/>
    <rect width="18" height="150" fill="#C9C0FF"/>
</svg>
